Nunito-Regular.ufo
<glyph name="hyphen" format="1">
  <advance width="649"/>
  <unicode hex="002D"/>
  <outline>
    <contour>
      <point x="133" y="438" type="line" smooth="yes"/>
      <point x="80" y="438"/>
      <point x="37" y="480"/>
      <point x="37" y="531" type="curve" smooth="yes"/>
      <point x="37" y="584"/>
      <point x="78" y="625"/>
      <point x="133" y="625" type="curve" smooth="yes"/>
      <point x="516" y="625" type="line" smooth="yes"/>
      <point x="571" y="625"/>
      <point x="612" y="584"/>
      <point x="612" y="531" type="curve" smooth="yes"/>
      <point x="612" y="480"/>
      <point x="569" y="438"/>
      <point x="516" y="438" type="curve" smooth="yes"/>
    </contour>
  </outline>
</glyph>
<glyph name="two" format="1">
  <advance width="1230"/>
  <unicode hex="0032"/>
  <outline>
    <contour>
      <point x="586" y="1229" type="curve" smooth="yes"/>
      <point x="488" y="1229"/>
      <point x="385" y="1187"/>
      <point x="311" y="1152" type="curve" smooth="yes"/>
      <point x="292" y="1143"/>
      <point x="275" y="1140"/>
      <point x="260" y="1140" type="curve" smooth="yes"/>
      <point x="205" y="1140"/>
      <point x="169" y="1183"/>
      <point x="169" y="1231" type="curve" smooth="yes"/>
      <point x="169" y="1266"/>
      <point x="188" y="1303"/>
      <point x="239" y="1330" type="curve" smooth="yes"/>
      <point x="346" y="1386"/>
      <point x="497" y="1431"/>
      <point x="619" y="1431" type="curve" smooth="yes"/>
      <point x="879" y="1431"/>
      <point x="1077" y="1303"/>
      <point x="1077" y="1072" type="curve" smooth="yes"/>
      <point x="1077" y="779"/>
      <point x="703" y="426"/>
      <point x="415" y="198" type="curve"/>
      <point x="994" y="198" type="line" smooth="yes"/>
      <point x="1058" y="198"/>
      <point x="1090" y="149"/>
      <point x="1090" y="98" type="curve" smooth="yes"/>
      <point x="1090" y="49"/>
      <point x="1058" y="0"/>
      <point x="994" y="0" type="curve" smooth="yes"/>
      <point x="242" y="0" type="line" smooth="yes"/>
      <point x="147" y="0"/>
      <point x="103" y="53"/>
      <point x="103" y="117" type="curve" smooth="yes"/>
      <point x="103" y="165"/>
      <point x="128" y="214"/>
      <point x="175" y="257" type="curve" smooth="yes"/>
      <point x="221" y="299"/>
      <point x="385" y="442"/>
      <point x="465" y="522" type="curve"/>
      <point x="660" y="709"/>
      <point x="819" y="914"/>
      <point x="819" y="1048" type="curve" smooth="yes"/>
      <point x="819" y="1168"/>
      <point x="708" y="1229"/>
    </contour>
  </outline>
</glyph>
<glyph name="four" format="1">
  <advance width="1230"/>
  <unicode hex="0034"/>
  <outline>
    <contour>
      <point x="565" y="1306" type="line"/>
      <point x="620" y="1405"/>
      <point x="692" y="1437"/>
      <point x="781" y="1437" type="curve" smooth="yes"/>
      <point x="877" y="1437"/>
      <point x="963" y="1386"/>
      <point x="963" y="1258" type="curve" smooth="yes"/>
      <point x="963" y="478" type="line"/>
      <point x="1084" y="478" type="line" smooth="yes"/>
      <point x="1145" y="478"/>
      <point x="1175" y="432"/>
      <point x="1175" y="385" type="curve" smooth="yes"/>
      <point x="1175" y="340"/>
      <point x="1145" y="293"/>
      <point x="1084" y="293" type="curve" smooth="yes"/>
      <point x="962" y="293" type="line"/>
      <point x="962" y="112" type="line" smooth="yes"/>
      <point x="962" y="36"/>
      <point x="898" y="-4"/>
      <point x="838" y="-4" type="curve" smooth="yes"/>
      <point x="778" y="-4"/>
      <point x="715" y="36"/>
      <point x="712" y="112" type="curve"/>
      <point x="712" y="293" type="line"/>
      <point x="160" y="293" type="line" smooth="yes"/>
      <point x="81" y="293"/>
      <point x="34" y="342"/>
      <point x="34" y="405" type="curve" smooth="yes"/>
      <point x="34" y="428"/>
      <point x="40" y="455"/>
      <point x="56" y="480" type="curve" smooth="yes"/>
    </contour>
    <contour>
      <point x="260" y="478" type="line"/>
      <point x="712" y="478" type="line"/>
      <point x="712" y="1224" type="line"/>
    </contour>
  </outline>
</glyph>
<glyph name="nine" format="1">
  <advance width="1230"/>
  <unicode hex="0039"/>
  <outline>
    <contour>
      <point x="213" y="45" type="curve"/>
      <point x="178" y="60"/>
      <point x="164" y="91"/>
      <point x="164" y="122" type="curve" smooth="yes"/>
      <point x="164" y="173"/>
      <point x="201" y="227"/>
      <point x="254" y="227" type="curve" smooth="yes"/>
      <point x="262" y="227"/>
      <point x="270" y="226"/>
      <point x="278" y="223" type="curve" smooth="yes"/>
      <point x="370" y="190"/>
      <point x="457" y="172"/>
      <point x="532" y="172" type="curve" smooth="yes"/>
      <point x="827" y="172"/>
      <point x="893" y="438"/>
      <point x="893" y="720" type="curve" smooth="yes"/>
      <point x="893" y="721"/>
      <point x="890" y="721"/>
      <point x="890" y="722" type="curve" smooth="yes"/>
      <point x="820" y="593"/>
      <point x="686" y="535"/>
      <point x="535" y="535" type="curve" smooth="yes"/>
      <point x="260" y="535"/>
      <point x="82" y="710"/>
      <point x="82" y="982" type="curve" smooth="yes"/>
      <point x="82" y="1262"/>
      <point x="276" y="1462"/>
      <point x="592" y="1462" type="curve" smooth="yes"/>
      <point x="1004" y="1462"/>
      <point x="1152" y="1161"/>
      <point x="1152" y="800" type="curve" smooth="yes"/>
      <point x="1152" y="380"/>
      <point x="1030" y="-24"/>
      <point x="531" y="-24" type="curve" smooth="yes"/>
      <point x="423" y="-24"/>
      <point x="309" y="0"/>
    </contour>
    <contour>
      <point x="601" y="1281" type="curve" smooth="yes"/>
      <point x="428" y="1281"/>
      <point x="332" y="1168"/>
      <point x="332" y="992" type="curve" smooth="yes"/>
      <point x="332" y="827"/>
      <point x="408" y="695"/>
      <point x="582" y="695" type="curve" smooth="yes"/>
      <point x="767" y="695"/>
      <point x="868" y="818"/>
      <point x="868" y="998" type="curve" smooth="yes"/>
      <point x="868" y="1158"/>
      <point x="758" y="1281"/>
    </contour>
  </outline>
</glyph>
<glyph name="A" format="1">
  <advance width="1445"/>
  <unicode hex="0041"/>
  <outline>
    <contour>
      <point x="1380" y="157" type="line" smooth="yes"/>
      <point x="1385" y="144"/>
      <point x="1387" y="130"/>
      <point x="1387" y="117" type="curve" smooth="yes"/>
      <point x="1387" y="45"/>
      <point x="1320" y="1"/>
      <point x="1253" y="1" type="curve" smooth="yes"/>
      <point x="1204" y="1"/>
      <point x="1155" y="27"/>
      <point x="1140" y="86" type="curve"/>
      <point x="1036" y="353" type="line"/>
      <point x="395" y="353" type="line"/>
      <point x="292" y="86" type="line"/>
      <point x="276" y="26"/>
      <point x="229" y="1"/>
      <point x="181" y="1" type="curve" smooth="yes"/>
      <point x="116" y="1"/>
      <point x="49" y="46"/>
      <point x="49" y="115" type="curve"/>
      <point x="48" y="128"/>
      <point x="51" y="142"/>
      <point x="57" y="157" type="curve" smooth="yes"/>
      <point x="477" y="1207" type="line"/>
      <point x="543" y="1393"/>
      <point x="607" y="1437"/>
      <point x="717" y="1437" type="curve" smooth="yes"/>
      <point x="829" y="1437"/>
      <point x="894" y="1388"/>
      <point x="958" y="1207" type="curve"/>
    </contour>
    <contour>
      <point x="714" y="1232" type="line"/>
      <point x="450" y="521" type="line"/>
      <point x="981" y="521" type="line"/>
      <point x="718" y="1232" type="line"/>
    </contour>
  </outline>
</glyph>
<glyph name="F" format="1">
  <advance width="1172"/>
  <unicode hex="0046"/>
  <outline>
    <contour>
      <point x="168" y="1306" type="line" smooth="yes"/>
      <point x="168" y="1382"/>
      <point x="229" y="1438"/>
      <point x="298" y="1438" type="curve" smooth="yes"/>
      <point x="988" y="1438" type="line" smooth="yes"/>
      <point x="1055" y="1438"/>
      <point x="1087" y="1389"/>
      <point x="1087" y="1339" type="curve" smooth="yes"/>
      <point x="1087" y="1290"/>
      <point x="1055" y="1240"/>
      <point x="988" y="1240" type="curve" smooth="yes"/>
      <point x="437" y="1240" type="line"/>
      <point x="437" y="842" type="line"/>
      <point x="960" y="842" type="line" smooth="yes"/>
      <point x="1027" y="842"/>
      <point x="1059" y="792"/>
      <point x="1059" y="743" type="curve" smooth="yes"/>
      <point x="1059" y="692"/>
      <point x="1027" y="643"/>
      <point x="960" y="643" type="curve" smooth="yes"/>
      <point x="437" y="643" type="line"/>
      <point x="437" y="129" type="line" smooth="yes"/>
      <point x="437" y="43"/>
      <point x="370" y="0"/>
      <point x="302" y="0" type="curve" smooth="yes"/>
      <point x="235" y="0"/>
      <point x="168" y="43"/>
      <point x="168" y="129" type="curve" smooth="yes"/>
    </contour>
  </outline>
</glyph>
<glyph name="G" format="1">
  <advance width="1535"/>
  <unicode hex="0047"/>
  <outline>
    <contour>
      <point x="1282" y="757" type="line" smooth="yes"/>
      <point x="1353" y="757"/>
      <point x="1379" y="718"/>
      <point x="1379" y="647" type="curve" smooth="yes"/>
      <point x="1379" y="177" type="line" smooth="yes"/>
      <point x="1379" y="90"/>
      <point x="1329" y="43"/>
      <point x="1262" y="32" type="curve"/>
      <point x="1140" y="-5"/>
      <point x="955" y="-33"/>
      <point x="828" y="-33" type="curve" smooth="yes"/>
      <point x="393" y="-33"/>
      <point x="107" y="203"/>
      <point x="107" y="718" type="curve" smooth="yes"/>
      <point x="107" y="1133"/>
      <point x="342" y="1470"/>
      <point x="839" y="1470" type="curve" smooth="yes"/>
      <point x="997" y="1470"/>
      <point x="1147" y="1440"/>
      <point x="1266" y="1391" type="curve" smooth="yes"/>
      <point x="1310" y="1372"/>
      <point x="1329" y="1336"/>
      <point x="1329" y="1300" type="curve" smooth="yes"/>
      <point x="1329" y="1249"/>
      <point x="1292" y="1197"/>
      <point x="1232" y="1197" type="curve" smooth="yes"/>
      <point x="1224" y="1197"/>
      <point x="1214" y="1198"/>
      <point x="1205" y="1201" type="curve"/>
      <point x="1095" y="1228"/>
      <point x="960" y="1253"/>
      <point x="860" y="1253" type="curve" smooth="yes"/>
      <point x="521" y="1253"/>
      <point x="389" y="1021"/>
      <point x="389" y="710" type="curve" smooth="yes"/>
      <point x="389" y="350"/>
      <point x="510" y="162"/>
      <point x="841" y="162" type="curve" smooth="yes"/>
      <point x="933" y="162"/>
      <point x="1029" y="177"/>
      <point x="1117" y="198" type="curve"/>
      <point x="1117" y="587" type="line"/>
      <point x="885" y="587" type="line" smooth="yes"/>
      <point x="828" y="587"/>
      <point x="801" y="630"/>
      <point x="801" y="673" type="curve" smooth="yes"/>
      <point x="801" y="716"/>
      <point x="828" y="757"/>
      <point x="885" y="757" type="curve" smooth="yes"/>
    </contour>
  </outline>
</glyph>
<glyph name="L" format="1">
  <advance width="1172"/>
  <unicode hex="004C"/>
  <outline>
    <contour>
      <point x="310" y="0" type="line" smooth="yes"/>
      <point x="238" y="0"/>
      <point x="175" y="59"/>
      <point x="175" y="133" type="curve" smooth="yes"/>
      <point x="175" y="1307" type="line" smooth="yes"/>
      <point x="175" y="1393"/>
      <point x="242" y="1436"/>
      <point x="310" y="1436" type="curve" smooth="yes"/>
      <point x="377" y="1436"/>
      <point x="444" y="1393"/>
      <point x="444" y="1307" type="curve" smooth="yes"/>
      <point x="444" y="202" type="line"/>
      <point x="1022" y="202" type="line" smooth="yes"/>
      <point x="1089" y="202"/>
      <point x="1123" y="151"/>
      <point x="1123" y="101" type="curve" smooth="yes"/>
      <point x="1123" y="50"/>
      <point x="1089" y="0"/>
      <point x="1022" y="0" type="curve" smooth="yes"/>
    </contour>
  </outline>
</glyph>
<glyph name="N" format="1">
  <advance width="1547"/>
  <unicode hex="004E"/>
  <outline>
    <contour>
      <point x="163" y="1278" type="line" smooth="yes"/>
      <point x="163" y="1379"/>
      <point x="230" y="1437"/>
      <point x="306" y="1437" type="curve" smooth="yes"/>
      <point x="357" y="1437"/>
      <point x="409" y="1412"/>
      <point x="450" y="1360" type="curve"/>
      <point x="1149" y="353" type="line"/>
      <point x="1149" y="1324" type="line" smooth="yes"/>
      <point x="1149" y="1399"/>
      <point x="1207" y="1438"/>
      <point x="1267" y="1438" type="curve" smooth="yes"/>
      <point x="1326" y="1438"/>
      <point x="1384" y="1400"/>
      <point x="1384" y="1324" type="curve" smooth="yes"/>
      <point x="1384" y="159" type="line" smooth="yes"/>
      <point x="1384" y="59"/>
      <point x="1315" y="0"/>
      <point x="1238" y="0" type="curve" smooth="yes"/>
      <point x="1189" y="0"/>
      <point x="1137" y="24"/>
      <point x="1094" y="77" type="curve"/>
      <point x="399" y="1079" type="line"/>
      <point x="399" y="113" type="line" smooth="yes"/>
      <point x="399" y="38"/>
      <point x="339" y="0"/>
      <point x="280" y="0" type="curve" smooth="yes"/>
      <point x="221" y="0"/>
      <point x="163" y="37"/>
      <point x="163" y="113" type="curve" smooth="yes"/>
    </contour>
  </outline>
</glyph>
<glyph name="O" format="1">
  <advance width="1604"/>
  <unicode hex="004F"/>
  <outline>
    <contour>
      <point x="394" y="718" type="curve" smooth="yes"/>
      <point x="394" y="398"/>
      <point x="517" y="165"/>
      <point x="802" y="165" type="curve" smooth="yes"/>
      <point x="1086" y="165"/>
      <point x="1211" y="398"/>
      <point x="1211" y="718" type="curve" smooth="yes"/>
      <point x="1211" y="1035"/>
      <point x="1088" y="1272"/>
      <point x="802" y="1272" type="curve" smooth="yes"/>
      <point x="516" y="1272"/>
      <point x="394" y="1035"/>
    </contour>
    <contour>
      <point x="111" y="718" type="curve" smooth="yes"/>
      <point x="111" y="1166"/>
      <point x="354" y="1470"/>
      <point x="802" y="1470" type="curve" smooth="yes"/>
      <point x="1253" y="1470"/>
      <point x="1493" y="1166"/>
      <point x="1493" y="718" type="curve" smooth="yes"/>
      <point x="1493" y="271"/>
      <point x="1253" y="-33"/>
      <point x="802" y="-33" type="curve" smooth="yes"/>
      <point x="354" y="-33"/>
      <point x="111" y="271"/>
    </contour>
  </outline>
</glyph>
<glyph name="R" format="1">
  <advance width="1422"/>
  <unicode hex="0052"/>
  <outline>
    <contour>
      <point x="179" y="1307" type="line" smooth="yes"/>
      <point x="179" y="1379"/>
      <point x="239" y="1438"/>
      <point x="312" y="1438" type="curve" smooth="yes"/>
      <point x="762" y="1438" type="line" smooth="yes"/>
      <point x="1030" y="1438"/>
      <point x="1281" y="1364"/>
      <point x="1281" y="1071" type="curve" smooth="yes"/>
      <point x="1281" y="910"/>
      <point x="1185" y="786"/>
      <point x="975" y="746" type="curve"/>
      <point x="975" y="742" type="line"/>
      <point x="1245" y="703"/>
      <point x="1241" y="522"/>
      <point x="1268" y="225" type="curve"/>
      <point x="1275" y="125" type="line"/>
      <point x="1275" y="45"/>
      <point x="1209" y="2"/>
      <point x="1143" y="2" type="curve" smooth="yes"/>
      <point x="1081" y="2"/>
      <point x="1020" y="39"/>
      <point x="1009" y="117" type="curve"/>
      <point x="965" y="547"/>
      <point x="988" y="632"/>
      <point x="721" y="632" type="curve" smooth="yes"/>
      <point x="444" y="632" type="line"/>
      <point x="444" y="129" type="line" smooth="yes"/>
      <point x="444" y="44"/>
      <point x="377" y="2"/>
      <point x="311" y="2" type="curve" smooth="yes"/>
      <point x="245" y="2"/>
      <point x="179" y="44"/>
      <point x="179" y="129" type="curve" smooth="yes"/>
    </contour>
    <contour>
      <point x="658" y="814" type="line" smooth="yes"/>
      <point x="823" y="814"/>
      <point x="1012" y="835"/>
      <point x="1012" y="1037" type="curve" smooth="yes"/>
      <point x="1012" y="1236"/>
      <point x="846" y="1254"/>
      <point x="709" y="1254" type="curve" smooth="yes"/>
      <point x="444" y="1254" type="line"/>
      <point x="444" y="814" type="line"/>
    </contour>
  </outline>
</glyph>
<glyph name="U" format="1">
  <advance width="1513"/>
  <unicode hex="0055"/>
  <outline>
    <contour>
      <point x="168" y="1308" type="line" smooth="yes"/>
      <point x="168" y="1394"/>
      <point x="234" y="1437"/>
      <point x="302" y="1437" type="curve" smooth="yes"/>
      <point x="369" y="1437"/>
      <point x="436" y="1394"/>
      <point x="436" y="1308" type="curve" smooth="yes"/>
      <point x="436" y="499" type="line" smooth="yes"/>
      <point x="436" y="273"/>
      <point x="596" y="171"/>
      <point x="756" y="171" type="curve" smooth="yes"/>
      <point x="918" y="171"/>
      <point x="1077" y="273"/>
      <point x="1077" y="499" type="curve" smooth="yes"/>
      <point x="1077" y="1308" type="line" smooth="yes"/>
      <point x="1077" y="1394"/>
      <point x="1144" y="1437"/>
      <point x="1212" y="1437" type="curve" smooth="yes"/>
      <point x="1279" y="1437"/>
      <point x="1346" y="1394"/>
      <point x="1346" y="1308" type="curve" smooth="yes"/>
      <point x="1346" y="491" type="line" smooth="yes"/>
      <point x="1346" y="139"/>
      <point x="1079" y="-31"/>
      <point x="756" y="-31" type="curve" smooth="yes"/>
      <point x="433" y="-31"/>
      <point x="168" y="139"/>
      <point x="168" y="491" type="curve" smooth="yes"/>
    </contour>
  </outline>
</glyph>
<glyph name="V" format="1">
  <advance width="1365"/>
  <unicode hex="0056"/>
  <outline>
    <contour>
      <point x="680" y="208" type="line"/>
      <point x="684" y="208" type="line"/>
      <point x="1061" y="1346" type="line"/>
      <point x="1078" y="1403"/>
      <point x="1128" y="1437"/>
      <point x="1181" y="1437" type="curve" smooth="yes"/>
      <point x="1247" y="1437"/>
      <point x="1304" y="1387"/>
      <point x="1304" y="1323" type="curve"/>
      <point x="1302" y="1311"/>
      <point x="1302" y="1299"/>
      <point x="1298" y="1286" type="curve" smooth="yes"/>
      <point x="904" y="173" type="line"/>
      <point x="864" y="44"/>
      <point x="789" y="0"/>
      <point x="677" y="0" type="curve" smooth="yes"/>
      <point x="568" y="0"/>
      <point x="496" y="39"/>
      <point x="453" y="173" type="curve"/>
      <point x="55" y="1281" type="line" smooth="yes"/>
      <point x="51" y="1293"/>
      <point x="49" y="1305"/>
      <point x="49" y="1318" type="curve" smooth="yes"/>
      <point x="49" y="1385"/>
      <point x="110" y="1438"/>
      <point x="179" y="1438" type="curve" smooth="yes"/>
      <point x="232" y="1438"/>
      <point x="280" y="1405"/>
      <point x="297" y="1349" type="curve"/>
    </contour>
  </outline>
</glyph>
<glyph name="X" format="1">
  <advance width="1321"/>
  <unicode hex="0058"/>
  <outline>
    <contour>
      <point x="291" y="62" type="line" smooth="yes"/>
      <point x="259" y="16"/>
      <point x="222" y="-1"/>
      <point x="182" y="-1" type="curve" smooth="yes"/>
      <point x="120" y="-1"/>
      <point x="64" y="48"/>
      <point x="64" y="107" type="curve" smooth="yes"/>
      <point x="64" y="128"/>
      <point x="72" y="150"/>
      <point x="87" y="171" type="curve" smooth="yes"/>
      <point x="502" y="739" type="line"/>
      <point x="115" y="1264" type="line" smooth="yes"/>
      <point x="101" y="1283"/>
      <point x="94" y="1302"/>
      <point x="94" y="1323" type="curve" smooth="yes"/>
      <point x="94" y="1384"/>
      <point x="159" y="1438"/>
      <point x="228" y="1438" type="curve" smooth="yes"/>
      <point x="272" y="1438"/>
      <point x="311" y="1418"/>
      <point x="343" y="1372" type="curve" smooth="yes"/>
      <point x="675" y="889" type="line"/>
      <point x="1016" y="1372" type="line"/>
      <point x="1047" y="1419"/>
      <point x="1087" y="1437"/>
      <point x="1126" y="1437" type="curve" smooth="yes"/>
      <point x="1187" y="1437"/>
      <point x="1243" y="1389"/>
      <point x="1243" y="1331" type="curve" smooth="yes"/>
      <point x="1243" y="1311"/>
      <point x="1236" y="1289"/>
      <point x="1220" y="1268" type="curve" smooth="yes"/>
      <point x="825" y="739" type="line"/>
      <point x="1233" y="177" type="line" smooth="yes"/>
      <point x="1247" y="157"/>
      <point x="1254" y="136"/>
      <point x="1254" y="117" type="curve" smooth="yes"/>
      <point x="1254" y="54"/>
      <point x="1187" y="0"/>
      <point x="1119" y="0" type="curve" smooth="yes"/>
      <point x="1079" y="0"/>
      <point x="1039" y="18"/>
      <point x="1010" y="63" type="curve"/>
      <point x="653" y="581" type="line"/>
    </contour>
  </outline>
</glyph>
<glyph name="Y" format="1">
  <advance width="1331"/>
  <unicode hex="0059"/>
  <outline>
    <contour>
      <point x="801" y="586" type="line"/>
      <point x="801" y="129" type="line" smooth="yes"/>
      <point x="801" y="43"/>
      <point x="734" y="-1"/>
      <point x="666" y="-1" type="curve" smooth="yes"/>
      <point x="599" y="-1"/>
      <point x="532" y="43"/>
      <point x="532" y="129" type="curve" smooth="yes"/>
      <point x="532" y="581" type="line"/>
      <point x="98" y="1271" type="line" smooth="yes"/>
      <point x="86" y="1289"/>
      <point x="84" y="1307"/>
      <point x="83" y="1323" type="curve"/>
      <point x="83" y="1388"/>
      <point x="154" y="1436"/>
      <point x="223" y="1436" type="curve" smooth="yes"/>
      <point x="268" y="1436"/>
      <point x="311" y="1415"/>
      <point x="334" y="1366" type="curve"/>
      <point x="679" y="771" type="line"/>
      <point x="683" y="771" type="line"/>
      <point x="1031" y="1371" type="line"/>
      <point x="1052" y="1418"/>
      <point x="1092" y="1436"/>
      <point x="1135" y="1436" type="curve" smooth="yes"/>
      <point x="1196" y="1436"/>
      <point x="1257" y="1397"/>
      <point x="1257" y="1338" type="curve" smooth="yes"/>
      <point x="1257" y="1323"/>
      <point x="1254" y="1305"/>
      <point x="1243" y="1288" type="curve" smooth="yes"/>
    </contour>
  </outline>
</glyph>
<glyph name="Z" format="1">
  <advance width="1218"/>
  <unicode hex="005A"/>
  <outline>
    <contour>
      <point x="192" y="0" type="line" smooth="yes"/>
      <point x="104" y="0"/>
      <point x="64" y="52"/>
      <point x="64" y="109" type="curve" smooth="yes"/>
      <point x="64" y="136"/>
      <point x="73" y="162"/>
      <point x="90" y="187" type="curve" smooth="yes"/>
      <point x="826" y="1240" type="line"/>
      <point x="176" y="1240" type="line" smooth="yes"/>
      <point x="109" y="1240"/>
      <point x="77" y="1290"/>
      <point x="77" y="1339" type="curve" smooth="yes"/>
      <point x="77" y="1389"/>
      <point x="109" y="1438"/>
      <point x="176" y="1438" type="curve" smooth="yes"/>
      <point x="1037" y="1438" type="line" smooth="yes"/>
      <point x="1108" y="1438"/>
      <point x="1152" y="1391"/>
      <point x="1152" y="1332" type="curve" smooth="yes"/>
      <point x="1152" y="1305"/>
      <point x="1144" y="1279"/>
      <point x="1125" y="1252" type="curve" smooth="yes"/>
      <point x="385" y="198" type="line"/>
      <point x="1047" y="198" type="line" smooth="yes"/>
      <point x="1114" y="198"/>
      <point x="1146" y="149"/>
      <point x="1146" y="99" type="curve" smooth="yes"/>
      <point x="1146" y="50"/>
      <point x="1114" y="0"/>
      <point x="1047" y="0" type="curve" smooth="yes"/>
    </contour>
  </outline>
</glyph>
<glyph name="bracketleft" format="1">
  <advance width="694"/>
  <unicode hex="005B"/>
  <outline>
    <contour>
      <point x="171" y="1327" type="line" smooth="yes"/>
      <point x="171" y="1387"/>
      <point x="219" y="1438"/>
      <point x="283" y="1438" type="curve" smooth="yes"/>
      <point x="507" y="1438" type="line" smooth="yes"/>
      <point x="563" y="1438"/>
      <point x="592" y="1397"/>
      <point x="592" y="1353" type="curve" smooth="yes"/>
      <point x="592" y="1311"/>
      <point x="563" y="1268"/>
      <point x="507" y="1268" type="curve" smooth="yes"/>
      <point x="394" y="1268" type="line"/>
      <point x="394" y="-50" type="line"/>
      <point x="507" y="-50" type="line" smooth="yes"/>
      <point x="563" y="-50"/>
      <point x="592" y="-91"/>
      <point x="592" y="-134" type="curve" smooth="yes"/>
      <point x="592" y="-177"/>
      <point x="564" y="-218"/>
      <point x="507" y="-221" type="curve"/>
      <point x="283" y="-221" type="line" smooth="yes"/>
      <point x="219" y="-221"/>
      <point x="171" y="-172"/>
      <point x="171" y="-111" type="curve" smooth="yes"/>
    </contour>
  </outline>
</glyph>
<glyph name="bracketright" format="1">
  <advance width="694"/>
  <unicode hex="005D"/>
  <outline>
    <contour>
      <point x="522" y="-111" type="line" smooth="yes"/>
      <point x="522" y="-172"/>
      <point x="474" y="-221"/>
      <point x="410" y="-221" type="curve" smooth="yes"/>
      <point x="186" y="-221" type="line"/>
      <point x="129" y="-218"/>
      <point x="101" y="-177"/>
      <point x="101" y="-134" type="curve" smooth="yes"/>
      <point x="101" y="-91"/>
      <point x="130" y="-50"/>
      <point x="186" y="-50" type="curve" smooth="yes"/>
      <point x="299" y="-50" type="line"/>
      <point x="299" y="1268" type="line"/>
      <point x="186" y="1268" type="line" smooth="yes"/>
      <point x="130" y="1268"/>
      <point x="101" y="1311"/>
      <point x="101" y="1353" type="curve" smooth="yes"/>
      <point x="101" y="1397"/>
      <point x="130" y="1438"/>
      <point x="186" y="1438" type="curve" smooth="yes"/>
      <point x="410" y="1438" type="line" smooth="yes"/>
      <point x="474" y="1438"/>
      <point x="522" y="1387"/>
      <point x="522" y="1327" type="curve" smooth="yes"/>
    </contour>
  </outline>
</glyph>
<glyph name="asciicircum" format="1">
  <advance width="1315"/>
  <unicode hex="005E"/>
  <outline>
    <contour>
      <point x="656" y="1224" type="line"/>
      <point x="343" y="593" type="line" smooth="yes"/>
      <point x="326" y="558"/>
      <point x="300" y="545"/>
      <point x="272" y="545" type="curve" smooth="yes"/>
      <point x="231" y="545"/>
      <point x="190" y="577"/>
      <point x="190" y="621" type="curve" smooth="yes"/>
      <point x="190" y="632"/>
      <point x="192" y="643"/>
      <point x="198" y="655" type="curve" smooth="yes"/>
      <point x="555" y="1355" type="line" smooth="yes"/>
      <point x="577" y="1398"/>
      <point x="617" y="1421"/>
      <point x="657" y="1421" type="curve" smooth="yes"/>
      <point x="696" y="1421"/>
      <point x="735" y="1399"/>
      <point x="758" y="1355" type="curve" smooth="yes"/>
      <point x="1113" y="655" type="line" smooth="yes"/>
      <point x="1119" y="643"/>
      <point x="1121" y="632"/>
      <point x="1121" y="621" type="curve" smooth="yes"/>
      <point x="1121" y="578"/>
      <point x="1081" y="547"/>
      <point x="1040" y="547" type="curve" smooth="yes"/>
      <point x="1013" y="547"/>
      <point x="986" y="560"/>
      <point x="967" y="593" type="curve"/>
    </contour>
  </outline>
</glyph>
<glyph name="grave" format="1">
  <advance width="569"/>
  <unicode hex="0060"/>
  <outline>
    <contour>
      <point x="78" y="1384" type="line" smooth="yes"/>
      <point x="58" y="1400"/>
      <point x="50" y="1420"/>
      <point x="50" y="1440" type="curve" smooth="yes"/>
      <point x="50" y="1493"/>
      <point x="108" y="1548"/>
      <point x="164" y="1548" type="curve" smooth="yes"/>
      <point x="188" y="1548"/>
      <point x="212" y="1538"/>
      <point x="231" y="1511" type="curve"/>
      <point x="483" y="1197" type="line"/>
      <point x="490" y="1186"/>
      <point x="494" y="1174"/>
      <point x="494" y="1163" type="curve" smooth="yes"/>
      <point x="494" y="1134"/>
      <point x="472" y="1109"/>
      <point x="441" y="1109" type="curve" smooth="yes"/>
      <point x="426" y="1109"/>
      <point x="410" y="1116"/>
      <point x="394" y="1129" type="curve" smooth="yes"/>
    </contour>
  </outline>
</glyph>
<glyph name="a" format="1">
  <advance width="1080"/>
  <unicode hex="0061"/>
  <outline>
    <contour>
      <point x="726" y="666" type="line" smooth="yes"/>
      <point x="726" y="801"/>
      <point x="645" y="845"/>
      <point x="528" y="845" type="curve" smooth="yes"/>
      <point x="395" y="845"/>
      <point x="313" y="812"/>
      <point x="233" y="775" type="curve" smooth="yes"/>
      <point x="223" y="771"/>
      <point x="213" y="769"/>
      <point x="203" y="769" type="curve" smooth="yes"/>
      <point x="166" y="769"/>
      <point x="134" y="801"/>
      <point x="134" y="837" type="curve" smooth="yes"/>
      <point x="134" y="851"/>
      <point x="138" y="861"/>
      <point x="148" y="876" type="curve" smooth="yes"/>
      <point x="211" y="972"/>
      <point x="349" y="1013"/>
      <point x="541" y="1013" type="curve" smooth="yes"/>
      <point x="774" y="1013"/>
      <point x="946" y="912"/>
      <point x="946" y="648" type="curve" smooth="yes"/>
      <point x="946" y="103" type="line"/>
      <point x="943" y="35"/>
      <point x="890" y="0"/>
      <point x="836" y="0" type="curve" smooth="yes"/>
      <point x="784" y="0"/>
      <point x="735" y="32"/>
      <point x="732" y="96" type="curve"/>
      <point x="732" y="171" type="line"/>
      <point x="671" y="67"/>
      <point x="548" y="-12"/>
      <point x="402" y="-12" type="curve" smooth="yes"/>
      <point x="204" y="-12"/>
      <point x="62" y="107"/>
      <point x="62" y="275" type="curve" smooth="yes"/>
      <point x="62" y="521"/>
      <point x="281" y="613"/>
      <point x="625" y="613" type="curve" smooth="yes"/>
      <point x="652" y="613"/>
      <point x="697" y="612"/>
      <point x="726" y="611" type="curve"/>
    </contour>
    <contour>
      <point x="725" y="480" type="line"/>
      <point x="542" y="480"/>
      <point x="281" y="483"/>
      <point x="281" y="289" type="curve" smooth="yes"/>
      <point x="281" y="198"/>
      <point x="362" y="133"/>
      <point x="472" y="131" type="curve"/>
      <point x="611" y="133"/>
      <point x="719" y="225"/>
      <point x="725" y="400" type="curve"/>
    </contour>
  </outline>
</glyph>
<glyph name="d" format="1">
  <advance width="1207"/>
  <unicode hex="0064"/>
  <outline>
    <contour>
      <point x="1083" y="112" type="line" smooth="yes"/>
      <point x="1083" y="37"/>
      <point x="1026" y="0"/>
      <point x="968" y="0" type="curve" smooth="yes"/>
      <point x="911" y="0"/>
      <point x="853" y="36"/>
      <point x="848" y="106" type="curve"/>
      <point x="848" y="116" type="line" smooth="yes"/>
      <point x="848" y="131"/>
      <point x="847" y="151"/>
      <point x="846" y="164" type="curve" smooth="yes"/>
      <point x="846" y="175" type="line"/>
      <point x="758" y="51"/>
      <point x="640" y="-14"/>
      <point x="497" y="-14" type="curve" smooth="yes"/>
      <point x="217" y="-14"/>
      <point x="85" y="254"/>
      <point x="85" y="506" type="curve" smooth="yes"/>
      <point x="85" y="776"/>
      <point x="227" y="1013"/>
      <point x="502" y="1013" type="curve" smooth="yes"/>
      <point x="647" y="1013"/>
      <point x="772" y="934"/>
      <point x="848" y="830" type="curve"/>
      <point x="848" y="1327" type="line" smooth="yes"/>
      <point x="848" y="1401"/>
      <point x="906" y="1437"/>
      <point x="965" y="1437" type="curve" smooth="yes"/>
      <point x="1025" y="1437"/>
      <point x="1083" y="1400"/>
      <point x="1083" y="1327" type="curve" smooth="yes"/>
    </contour>
    <contour>
      <point x="581" y="857" type="curve" smooth="yes"/>
      <point x="383" y="857"/>
      <point x="327" y="671"/>
      <point x="327" y="509" type="curve" smooth="yes"/>
      <point x="327" y="356"/>
      <point x="368" y="140"/>
      <point x="569" y="140" type="curve" smooth="yes"/>
      <point x="781" y="140"/>
      <point x="845" y="294"/>
      <point x="845" y="514" type="curve" smooth="yes"/>
      <point x="845" y="710"/>
      <point x="772" y="857"/>
    </contour>
  </outline>
</glyph>
<glyph name="l" format="1">
  <advance width="511"/>
  <unicode hex="006C"/>
  <outline>
    <contour>
      <point x="138" y="1321" type="line" smooth="yes"/>
      <point x="138" y="1397"/>
      <point x="196" y="1437"/>
      <point x="256" y="1437" type="curve" smooth="yes"/>
      <point x="315" y="1437"/>
      <point x="373" y="1397"/>
      <point x="373" y="1321" type="curve" smooth="yes"/>
      <point x="373" y="116" type="line" smooth="yes"/>
      <point x="373" y="40"/>
      <point x="313" y="0"/>
      <point x="254" y="0" type="curve" smooth="yes"/>
      <point x="195" y="0"/>
      <point x="138" y="38"/>
      <point x="138" y="116" type="curve" smooth="yes"/>
    </contour>
  </outline>
</glyph>
<glyph name="u" format="1">
  <advance width="1195"/>
  <unicode hex="0075"/>
  <outline>
    <contour>
      <point x="1058" y="112" type="line" smooth="yes"/>
      <point x="1058" y="37"/>
      <point x="1000" y="0"/>
      <point x="940" y="0" type="curve" smooth="yes"/>
      <point x="883" y="0"/>
      <point x="827" y="35"/>
      <point x="824" y="106" type="curve"/>
      <point x="824" y="181" type="line"/>
      <point x="765" y="73"/>
      <point x="637" y="-12"/>
      <point x="489" y="-12" type="curve" smooth="yes"/>
      <point x="301" y="-12"/>
      <point x="137" y="109"/>
      <point x="137" y="366" type="curve" smooth="yes"/>
      <point x="137" y="888" type="line" smooth="yes"/>
      <point x="137" y="963"/>
      <point x="195" y="1001"/>
      <point x="254" y="1001" type="curve" smooth="yes"/>
      <point x="314" y="1001"/>
      <point x="372" y="963"/>
      <point x="372" y="888" type="curve" smooth="yes"/>
      <point x="372" y="362" type="line" smooth="yes"/>
      <point x="372" y="217"/>
      <point x="464" y="142"/>
      <point x="569" y="142" type="curve" smooth="yes"/>
      <point x="701" y="142"/>
      <point x="815" y="224"/>
      <point x="824" y="383" type="curve"/>
      <point x="824" y="889" type="line" smooth="yes"/>
      <point x="824" y="964"/>
      <point x="882" y="1001"/>
      <point x="941" y="1001" type="curve" smooth="yes"/>
      <point x="1000" y="1001"/>
      <point x="1058" y="964"/>
      <point x="1058" y="889" type="curve" smooth="yes"/>
    </contour>
  </outline>
</glyph>
<glyph name="z" format="1">
  <advance width="966"/>
  <unicode hex="007A"/>
  <outline>
    <contour>
      <point x="808" y="176" type="line" smooth="yes"/>
      <point x="867" y="176"/>
      <point x="896" y="132"/>
      <point x="896" y="88" type="curve" smooth="yes"/>
      <point x="896" y="44"/>
      <point x="867" y="0"/>
      <point x="808" y="0" type="curve" smooth="yes"/>
      <point x="177" y="0" type="line" smooth="yes"/>
      <point x="111" y="0"/>
      <point x="71" y="43"/>
      <point x="71" y="95" type="curve" smooth="yes"/>
      <point x="71" y="119"/>
      <point x="79" y="145"/>
      <point x="98" y="169" type="curve" smooth="yes"/>
      <point x="616" y="824" type="line"/>
      <point x="177" y="824" type="line" smooth="yes"/>
      <point x="118" y="824"/>
      <point x="89" y="868"/>
      <point x="89" y="913" type="curve" smooth="yes"/>
      <point x="89" y="957"/>
      <point x="118" y="1001"/>
      <point x="177" y="1001" type="curve" smooth="yes"/>
      <point x="787" y="1001" type="line" smooth="yes"/>
      <point x="863" y="1001"/>
      <point x="900" y="961"/>
      <point x="900" y="912" type="curve" smooth="yes"/>
      <point x="900" y="888"/>
      <point x="890" y="859"/>
      <point x="871" y="834" type="curve" smooth="yes"/>
      <point x="353" y="176" type="line"/>
    </contour>
  </outline>
</glyph>
<glyph name="bar" format="1">
  <advance width="455"/>
  <unicode hex="007C"/>
  <outline>
    <contour>
      <point x="143" y="1402" type="line" smooth="yes"/>
      <point x="143" y="1457"/>
      <point x="186" y="1486"/>
      <point x="228" y="1486" type="curve" smooth="yes"/>
      <point x="271" y="1486"/>
      <point x="312" y="1457"/>
      <point x="312" y="1402" type="curve" smooth="yes"/>
      <point x="312" y="-271" type="line" smooth="yes"/>
      <point x="312" y="-327"/>
      <point x="269" y="-356"/>
      <point x="227" y="-356" type="curve" smooth="yes"/>
      <point x="184" y="-356"/>
      <point x="143" y="-327"/>
      <point x="143" y="-271" type="curve" smooth="yes"/>
    </contour>
  </outline>
</glyph>
<glyph name="currency" format="1">
  <advance width="1207"/>
  <unicode hex="00A4"/>
  <outline>
    <contour>
      <point x="609" y="190" type="curve" smooth="yes"/>
      <point x="505" y="190"/>
      <point x="420" y="216"/>
      <point x="352" y="263" type="curve"/>
      <point x="266" y="176" type="line" smooth="yes"/>
      <point x="253" y="163"/>
      <point x="238" y="158"/>
      <point x="225" y="158" type="curve" smooth="yes"/>
      <point x="193" y="158"/>
      <point x="165" y="186"/>
      <point x="165" y="218" type="curve" smooth="yes"/>
      <point x="165" y="233"/>
      <point x="170" y="247"/>
      <point x="183" y="260" type="curve" smooth="yes"/>
      <point x="266" y="343" type="line"/>
      <point x="206" y="418"/>
      <point x="177" y="511"/>
      <point x="177" y="607" type="curve" smooth="yes"/>
      <point x="177" y="700"/>
      <point x="206" y="792"/>
      <point x="263" y="867" type="curve"/>
      <point x="183" y="947" type="line" smooth="yes"/>
      <point x="171" y="959"/>
      <point x="165" y="973"/>
      <point x="165" y="988" type="curve" smooth="yes"/>
      <point x="165" y="1020"/>
      <point x="193" y="1048"/>
      <point x="224" y="1048" type="curve" smooth="yes"/>
      <point x="239" y="1048"/>
      <point x="253" y="1043"/>
      <point x="266" y="1030" type="curve" smooth="yes"/>
      <point x="347" y="948" type="line"/>
      <point x="415" y="996"/>
      <point x="501" y="1026"/>
      <point x="609" y="1026" type="curve" smooth="yes"/>
      <point x="717" y="1026"/>
      <point x="804" y="997"/>
      <point x="872" y="948" type="curve"/>
      <point x="953" y="1030" type="line" smooth="yes"/>
      <point x="966" y="1043"/>
      <point x="980" y="1048"/>
      <point x="995" y="1048" type="curve" smooth="yes"/>
      <point x="1027" y="1048"/>
      <point x="1055" y="1020"/>
      <point x="1055" y="988" type="curve" smooth="yes"/>
      <point x="1055" y="975"/>
      <point x="1049" y="959"/>
      <point x="1037" y="947" type="curve" smooth="yes"/>
      <point x="956" y="867" type="line"/>
      <point x="1015" y="791"/>
      <point x="1042" y="699"/>
      <point x="1042" y="607" type="curve" smooth="yes"/>
      <point x="1042" y="511"/>
      <point x="1013" y="418"/>
      <point x="953" y="342" type="curve"/>
      <point x="1037" y="260" type="line" smooth="yes"/>
      <point x="1050" y="247"/>
      <point x="1055" y="233"/>
      <point x="1055" y="218" type="curve" smooth="yes"/>
      <point x="1055" y="186"/>
      <point x="1027" y="158"/>
      <point x="995" y="158" type="curve" smooth="yes"/>
      <point x="980" y="158"/>
      <point x="966" y="163"/>
      <point x="954" y="176" type="curve" smooth="yes"/>
      <point x="867" y="264" type="line"/>
      <point x="799" y="217"/>
      <point x="714" y="190"/>
    </contour>
    <contour>
      <point x="609" y="913" type="curve" smooth="yes"/>
      <point x="412" y="913"/>
      <point x="314" y="759"/>
      <point x="314" y="607" type="curve" smooth="yes"/>
      <point x="314" y="455"/>
      <point x="412" y="302"/>
      <point x="609" y="302" type="curve" smooth="yes"/>
      <point x="806" y="302"/>
      <point x="905" y="455"/>
      <point x="905" y="607" type="curve" smooth="yes"/>
      <point x="905" y="759"/>
      <point x="806" y="913"/>
    </contour>
  </outline>
</glyph>
<glyph name="twosuperior" format="1">
  <advance width="754"/>
  <unicode hex="00B2"/>
  <outline>
    <contour>
      <point x="364" y="1315" type="curve" smooth="yes"/>
      <point x="305" y="1315"/>
      <point x="246" y="1291"/>
      <point x="203" y="1270" type="curve" smooth="yes"/>
      <point x="194" y="1265"/>
      <point x="184" y="1263"/>
      <point x="173" y="1263" type="curve" smooth="yes"/>
      <point x="142" y="1263"/>
      <point x="121" y="1287"/>
      <point x="121" y="1315" type="curve" smooth="yes"/>
      <point x="121" y="1380"/>
      <point x="287" y="1431"/>
      <point x="382" y="1431" type="curve" smooth="yes"/>
      <point x="531" y="1431"/>
      <point x="648" y="1358"/>
      <point x="648" y="1222" type="curve" smooth="yes"/>
      <point x="648" y="1050"/>
      <point x="425" y="840"/>
      <point x="258" y="707" type="curve"/>
      <point x="601" y="707" type="line" smooth="yes"/>
      <point x="637" y="707"/>
      <point x="656" y="678"/>
      <point x="656" y="650" type="curve" smooth="yes"/>
      <point x="656" y="622"/>
      <point x="638" y="594"/>
      <point x="601" y="594" type="curve" smooth="yes"/>
      <point x="162" y="594" type="line" smooth="yes"/>
      <point x="106" y="594"/>
      <point x="81" y="624"/>
      <point x="81" y="661" type="curve" smooth="yes"/>
      <point x="81" y="731"/>
      <point x="184" y="784"/>
      <point x="293" y="898" type="curve"/>
      <point x="407" y="1004"/>
      <point x="501" y="1129"/>
      <point x="501" y="1208" type="curve" smooth="yes"/>
      <point x="501" y="1280"/>
      <point x="435" y="1315"/>
    </contour>
  </outline>
</glyph>
<glyph name="threesuperior" format="1">
  <advance width="818"/>
  <unicode hex="00B3"/>
  <outline>
    <contour>
      <point x="381" y="1053" type="line" smooth="yes"/>
      <point x="473" y="1053"/>
      <point x="547" y="1104"/>
      <point x="547" y="1191" type="curve" smooth="yes"/>
      <point x="547" y="1273"/>
      <point x="477" y="1315"/>
      <point x="397" y="1315" type="curve" smooth="yes"/>
      <point x="318" y="1315"/>
      <point x="230" y="1280"/>
      <point x="211" y="1280" type="curve" smooth="yes"/>
      <point x="178" y="1280"/>
      <point x="157" y="1306"/>
      <point x="157" y="1333" type="curve" smooth="yes"/>
      <point x="157" y="1394"/>
      <point x="301" y="1427"/>
      <point x="400" y="1427" type="curve" smooth="yes"/>
      <point x="551" y="1427"/>
      <point x="673" y="1345"/>
      <point x="673" y="1193" type="curve" smooth="yes"/>
      <point x="673" y="1094"/>
      <point x="608" y="1030"/>
      <point x="519" y="1006" type="curve"/>
      <point x="519" y="1005" type="line"/>
      <point x="624" y="981"/>
      <point x="691" y="900"/>
      <point x="691" y="790" type="curve" smooth="yes"/>
      <point x="691" y="642"/>
      <point x="568" y="560"/>
      <point x="405" y="560" type="curve" smooth="yes"/>
      <point x="324" y="560"/>
      <point x="163" y="594"/>
      <point x="163" y="658" type="curve" smooth="yes"/>
      <point x="163" y="685"/>
      <point x="184" y="709"/>
      <point x="219" y="709" type="curve" smooth="yes"/>
      <point x="250" y="709"/>
      <point x="325" y="671"/>
      <point x="405" y="671" type="curve" smooth="yes"/>
      <point x="498" y="671"/>
      <point x="560" y="713"/>
      <point x="560" y="797" type="curve" smooth="yes"/>
      <point x="560" y="889"/>
      <point x="486" y="949"/>
      <point x="386" y="949" type="curve" smooth="yes"/>
      <point x="340" y="949" type="line" smooth="yes"/>
      <point x="305" y="949"/>
      <point x="290" y="975"/>
      <point x="290" y="1000" type="curve" smooth="yes"/>
      <point x="290" y="1027"/>
      <point x="307" y="1053"/>
      <point x="340" y="1053" type="curve" smooth="yes"/>
    </contour>
  </outline>
</glyph>
<glyph name="onequarter" format="1">
  <advance width="1634"/>
  <unicode hex="00BC"/>
  <outline>
    <contour>
      <point x="623" y="-25" type="line" smooth="yes"/>
      <point x="611" y="-61"/>
      <point x="581" y="-76"/>
      <point x="553" y="-76" type="curve" smooth="yes"/>
      <point x="516" y="-76"/>
      <point x="478" y="-49"/>
      <point x="478" y="-6" type="curve" smooth="yes"/>
      <point x="478" y="1"/>
      <point x="480" y="11"/>
      <point x="483" y="22" type="curve"/>
      <point x="949" y="1399" type="line" smooth="yes"/>
      <point x="961" y="1435"/>
      <point x="991" y="1451"/>
      <point x="1020" y="1451" type="curve" smooth="yes"/>
      <point x="1059" y="1451"/>
      <point x="1096" y="1425"/>
      <point x="1096" y="1381" type="curve" smooth="yes"/>
      <point x="1096" y="1373"/>
      <point x="1094" y="1363"/>
      <point x="1091" y="1352" type="curve"/>
    </contour>
    <contour>
      <point x="1206" y="757" type="line"/>
      <point x="1241" y="821"/>
      <point x="1280" y="838"/>
      <point x="1329" y="838" type="curve" smooth="yes"/>
      <point x="1382" y="838"/>
      <point x="1420" y="802"/>
      <point x="1420" y="730" type="curve" smooth="yes"/>
      <point x="1420" y="275" type="line"/>
      <point x="1493" y="275" type="line" smooth="yes"/>
      <point x="1528" y="275"/>
      <point x="1544" y="252"/>
      <point x="1544" y="229" type="curve" smooth="yes"/>
      <point x="1544" y="206"/>
      <point x="1528" y="183"/>
      <point x="1493" y="183" type="curve" smooth="yes"/>
      <point x="1420" y="183" type="line"/>
      <point x="1420" y="68" type="line" smooth="yes"/>
      <point x="1420" y="23"/>
      <point x="1388" y="1"/>
      <point x="1357" y="1" type="curve" smooth="yes"/>
      <point x="1325" y="1"/>
      <point x="1293" y="23"/>
      <point x="1293" y="68" type="curve" smooth="yes"/>
      <point x="1293" y="183" type="line"/>
      <point x="964" y="183" type="line" smooth="yes"/>
      <point x="920" y="183"/>
      <point x="893" y="207"/>
      <point x="893" y="242" type="curve" smooth="yes"/>
      <point x="893" y="254"/>
      <point x="897" y="269"/>
      <point x="906" y="284" type="curve" smooth="yes"/>
    </contour>
    <contour>
      <point x="1019" y="273" type="line"/>
      <point x="1293" y="273" type="line"/>
      <point x="1293" y="718" type="line"/>
    </contour>
    <contour>
      <point x="219" y="1184" type="line" smooth="yes"/>
      <point x="210" y="1179"/>
      <point x="201" y="1176"/>
      <point x="191" y="1176" type="curve" smooth="yes"/>
      <point x="162" y="1176"/>
      <point x="139" y="1202"/>
      <point x="139" y="1229" type="curve" smooth="yes"/>
      <point x="139" y="1244"/>
      <point x="146" y="1260"/>
      <point x="165" y="1272" type="curve" smooth="yes"/>
      <point x="371" y="1398" type="line" smooth="yes"/>
      <point x="382" y="1405"/>
      <point x="395" y="1408"/>
      <point x="408" y="1408" type="curve" smooth="yes"/>
      <point x="441" y="1408"/>
      <point x="470" y="1384"/>
      <point x="470" y="1335" type="curve" smooth="yes"/>
      <point x="470" y="660" type="line" smooth="yes"/>
      <point x="470" y="616"/>
      <point x="436" y="594"/>
      <point x="403" y="594" type="curve" smooth="yes"/>
      <point x="368" y="594"/>
      <point x="336" y="616"/>
      <point x="336" y="660" type="curve" smooth="yes"/>
      <point x="336" y="1257" type="line"/>
    </contour>
  </outline>
</glyph>
<glyph name="Eth" format="1">
  <advance width="1524"/>
  <unicode hex="00D0"/>
  <outline>
    <contour>
      <point x="294" y="0" type="line" smooth="yes"/>
      <point x="221" y="0"/>
      <point x="161" y="58"/>
      <point x="161" y="130" type="curve" smooth="yes"/>
      <point x="161" y="648" type="line"/>
      <point x="66" y="648" type="line" smooth="yes"/>
      <point x="18" y="648"/>
      <point x="-7" y="685"/>
      <point x="-7" y="721" type="curve" smooth="yes"/>
      <point x="-7" y="758"/>
      <point x="17" y="794"/>
      <point x="66" y="794" type="curve" smooth="yes"/>
      <point x="161" y="794" type="line"/>
      <point x="161" y="1307" type="line" smooth="yes"/>
      <point x="161" y="1379"/>
      <point x="221" y="1438"/>
      <point x="294" y="1438" type="curve" smooth="yes"/>
      <point x="650" y="1438" type="line" smooth="yes"/>
      <point x="1167" y="1438"/>
      <point x="1417" y="1174"/>
      <point x="1417" y="713" type="curve" smooth="yes"/>
      <point x="1417" y="252"/>
      <point x="1136" y="0"/>
      <point x="660" y="0" type="curve" smooth="yes"/>
    </contour>
    <contour>
      <point x="427" y="648" type="line"/>
      <point x="427" y="183" type="line"/>
      <point x="653" y="183" type="line" smooth="yes"/>
      <point x="1000" y="183"/>
      <point x="1135" y="383"/>
      <point x="1135" y="718" type="curve" smooth="yes"/>
      <point x="1135" y="1089"/>
      <point x="950" y="1254"/>
      <point x="616" y="1254" type="curve" smooth="yes"/>
      <point x="427" y="1254" type="line"/>
      <point x="427" y="794" type="line"/>
      <point x="540" y="794" type="line" smooth="yes"/>
      <point x="589" y="794"/>
      <point x="613" y="757"/>
      <point x="613" y="721" type="curve" smooth="yes"/>
      <point x="613" y="684"/>
      <point x="589" y="648"/>
      <point x="540" y="648" type="curve" smooth="yes"/>
    </contour>
  </outline>
</glyph>
<glyph name="thorn" format="1">
  <advance width="1207"/>
  <unicode hex="00FE"/>
  <outline>
    <contour>
      <point x="357" y="-229" type="line" smooth="yes"/>
      <point x="357" y="-304"/>
      <point x="300" y="-342"/>
      <point x="242" y="-342" type="curve" smooth="yes"/>
      <point x="184" y="-342"/>
      <point x="127" y="-305"/>
      <point x="127" y="-229" type="curve" smooth="yes"/>
      <point x="127" y="1327" type="line" smooth="yes"/>
      <point x="127" y="1400"/>
      <point x="185" y="1437"/>
      <point x="245" y="1437" type="curve" smooth="yes"/>
      <point x="304" y="1437"/>
      <point x="362" y="1401"/>
      <point x="362" y="1327" type="curve" smooth="yes"/>
      <point x="362" y="830" type="line"/>
      <point x="431" y="960"/>
      <point x="571" y="1026"/>
      <point x="707" y="1026" type="curve" smooth="yes"/>
      <point x="979" y="1026"/>
      <point x="1124" y="801"/>
      <point x="1124" y="506" type="curve" smooth="yes"/>
      <point x="1124" y="230"/>
      <point x="988" y="-24"/>
      <point x="712" y="-24" type="curve" smooth="yes"/>
      <point x="569" y="-24"/>
      <point x="442" y="43"/>
      <point x="357" y="184" type="curve"/>
    </contour>
    <contour>
      <point x="362" y="514" type="curve" smooth="yes"/>
      <point x="362" y="293"/>
      <point x="424" y="133"/>
      <point x="640" y="133" type="curve" smooth="yes"/>
      <point x="838" y="133"/>
      <point x="882" y="339"/>
      <point x="882" y="509" type="curve" smooth="yes"/>
      <point x="882" y="691"/>
      <point x="822" y="866"/>
      <point x="628" y="866" type="curve" smooth="yes"/>
      <point x="432" y="866"/>
      <point x="362" y="709"/>
    </contour>
  </outline>
</glyph>
<glyph name="OE" format="1">
  <advance width="1997"/>
  <unicode hex="0152"/>
  <outline>
    <contour>
      <point x="1038" y="1251" type="line"/>
      <point x="1027" y="1255"/>
      <point x="926" y="1273"/>
      <point x="742" y="1273" type="curve" smooth="yes"/>
      <point x="487" y="1273"/>
      <point x="367" y="1030"/>
      <point x="367" y="720" type="curve" smooth="yes"/>
      <point x="367" y="411"/>
      <point x="481" y="162"/>
      <point x="741" y="162" type="curve"/>
      <point x="917" y="165"/>
      <point x="1029" y="183"/>
      <point x="1038" y="189" type="curve"/>
    </contour>
    <contour>
      <point x="1294" y="1240" type="line"/>
      <point x="1294" y="833" type="line"/>
      <point x="1731" y="833" type="line" smooth="yes"/>
      <point x="1795" y="833"/>
      <point x="1829" y="784"/>
      <point x="1829" y="735" type="curve" smooth="yes"/>
      <point x="1829" y="686"/>
      <point x="1795" y="638"/>
      <point x="1731" y="638" type="curve" smooth="yes"/>
      <point x="1294" y="638" type="line"/>
      <point x="1294" y="196" type="line"/>
      <point x="1791" y="196" type="line" smooth="yes"/>
      <point x="1855" y="196"/>
      <point x="1888" y="146"/>
      <point x="1888" y="97" type="curve" smooth="yes"/>
      <point x="1888" y="49"/>
      <point x="1855" y="-1"/>
      <point x="1791" y="-1" type="curve" smooth="yes"/>
      <point x="1076" y="-1" type="line" smooth="yes"/>
      <point x="1047" y="-1"/>
      <point x="845" y="-24"/>
      <point x="726" y="-24" type="curve" smooth="yes"/>
      <point x="345" y="-24"/>
      <point x="103" y="261"/>
      <point x="103" y="718" type="curve" smooth="yes"/>
      <point x="103" y="1177"/>
      <point x="343" y="1459"/>
      <point x="745" y="1459" type="curve" smooth="yes"/>
      <point x="874" y="1459"/>
      <point x="1073" y="1437"/>
      <point x="1102" y="1437" type="curve" smooth="yes"/>
      <point x="1770" y="1437" type="line" smooth="yes"/>
      <point x="1835" y="1437"/>
      <point x="1867" y="1386"/>
      <point x="1867" y="1339" type="curve" smooth="yes"/>
      <point x="1867" y="1289"/>
      <point x="1835" y="1240"/>
      <point x="1770" y="1240" type="curve" smooth="yes"/>
    </contour>
  </outline>
</glyph>
<glyph name="circumflex" format="1">
  <advance width="569"/>
  <unicode hex="02C6"/>
  <outline>
    <contour>
      <point x="181" y="1498" type="line"/>
      <point x="212" y="1536"/>
      <point x="246" y="1555"/>
      <point x="283" y="1555" type="curve" smooth="yes"/>
      <point x="318" y="1555"/>
      <point x="354" y="1537"/>
      <point x="385" y="1498" type="curve"/>
      <point x="575" y="1242" type="line" smooth="yes"/>
      <point x="590" y="1221"/>
      <point x="596" y="1205"/>
      <point x="596" y="1188" type="curve" smooth="yes"/>
      <point x="596" y="1151"/>
      <point x="565" y="1123"/>
      <point x="526" y="1123" type="curve" smooth="yes"/>
      <point x="500" y="1123"/>
      <point x="469" y="1135"/>
      <point x="445" y="1168" type="curve" smooth="yes"/>
      <point x="284" y="1385" type="line"/>
      <point x="122" y="1168" type="line"/>
      <point x="95" y="1136"/>
      <point x="65" y="1122"/>
      <point x="38" y="1122" type="curve" smooth="yes"/>
      <point x="-1" y="1122"/>
      <point x="-32" y="1149"/>
      <point x="-32" y="1186" type="curve"/>
      <point x="-33" y="1203"/>
      <point x="-25" y="1221"/>
      <point x="-10" y="1241" type="curve" smooth="yes"/>
    </contour>
  </outline>
</glyph>
<glyph name="hungarumlaut" format="1">
  <advance width="569"/>
  <unicode hex="02DD"/>
  <outline>
    <contour>
      <point x="410" y="1129" type="line" smooth="yes"/>
      <point x="394" y="1116"/>
      <point x="380" y="1110"/>
      <point x="363" y="1110" type="curve" smooth="yes"/>
      <point x="332" y="1110"/>
      <point x="310" y="1134"/>
      <point x="310" y="1163" type="curve" smooth="yes"/>
      <point x="310" y="1174"/>
      <point x="312" y="1186"/>
      <point x="321" y="1197" type="curve" smooth="yes"/>
      <point x="573" y="1511" type="line"/>
      <point x="592" y="1538"/>
      <point x="616" y="1548"/>
      <point x="641" y="1548" type="curve" smooth="yes"/>
      <point x="696" y="1548"/>
      <point x="754" y="1493"/>
      <point x="754" y="1441" type="curve" smooth="yes"/>
      <point x="754" y="1422"/>
      <point x="746" y="1400"/>
      <point x="726" y="1384" type="curve" smooth="yes"/>
    </contour>
    <contour>
      <point x="35" y="1129" type="line" smooth="yes"/>
      <point x="19" y="1116"/>
      <point x="4" y="1110"/>
      <point x="-11" y="1110" type="curve" smooth="yes"/>
      <point x="-42" y="1110"/>
      <point x="-66" y="1134"/>
      <point x="-66" y="1163" type="curve"/>
      <point x="-65" y="1174"/>
      <point x="-63" y="1186"/>
      <point x="-54" y="1197" type="curve" smooth="yes"/>
      <point x="198" y="1511" type="line"/>
      <point x="217" y="1538"/>
      <point x="241" y="1548"/>
      <point x="266" y="1548" type="curve" smooth="yes"/>
      <point x="321" y="1548"/>
      <point x="379" y="1493"/>
      <point x="379" y="1441" type="curve" smooth="yes"/>
      <point x="379" y="1421"/>
      <point x="371" y="1400"/>
      <point x="351" y="1384" type="curve" smooth="yes"/>
    </contour>
  </outline>
</glyph>
<glyph name="uni030F" format="1">
  <advance width="569"/>
  <unicode hex="030F"/>
  <outline>
    <contour>
      <point x="-67" y="1384" type="line" smooth="yes"/>
      <point x="-87" y="1400"/>
      <point x="-95" y="1421"/>
      <point x="-95" y="1441" type="curve" smooth="yes"/>
      <point x="-95" y="1493"/>
      <point x="-37" y="1548"/>
      <point x="18" y="1548" type="curve" smooth="yes"/>
      <point x="43" y="1548"/>
      <point x="67" y="1538"/>
      <point x="86" y="1511" type="curve"/>
      <point x="338" y="1197" type="line" smooth="yes"/>
      <point x="346" y="1186"/>
      <point x="348" y="1174"/>
      <point x="349" y="1163" type="curve"/>
      <point x="349" y="1134"/>
      <point x="326" y="1110"/>
      <point x="295" y="1110" type="curve" smooth="yes"/>
      <point x="280" y="1110"/>
      <point x="264" y="1116"/>
      <point x="249" y="1129" type="curve" smooth="yes"/>
    </contour>
    <contour>
      <point x="308" y="1384" type="line" smooth="yes"/>
      <point x="288" y="1400"/>
      <point x="280" y="1421"/>
      <point x="280" y="1441" type="curve" smooth="yes"/>
      <point x="280" y="1493"/>
      <point x="338" y="1548"/>
      <point x="393" y="1548" type="curve" smooth="yes"/>
      <point x="418" y="1548"/>
      <point x="442" y="1538"/>
      <point x="461" y="1511" type="curve"/>
      <point x="712" y="1197" type="line" smooth="yes"/>
      <point x="721" y="1186"/>
      <point x="723" y="1173"/>
      <point x="724" y="1162" type="curve"/>
      <point x="724" y="1134"/>
      <point x="701" y="1110"/>
      <point x="670" y="1110" type="curve"/>
      <point x="655" y="1109"/>
      <point x="639" y="1116"/>
      <point x="624" y="1129" type="curve" smooth="yes"/>
    </contour>
  </outline>
</glyph>
<glyph name="uni0326" format="1">
  <advance width="615"/>
  <unicode hex="0326"/>
  <outline>
    <contour>
      <point x="292" y="-675" type="line"/>
      <point x="91" y="-675" type="line"/>
      <point x="195" y="-204" type="line"/>
      <point x="454" y="-204" type="line"/>
    </contour>
  </outline>
</glyph>
<glyph name="endash" format="1">
  <advance width="1024"/>
  <unicode hex="2013"/>
  <outline>
    <contour>
      <point x="90" y="438" type="line" smooth="yes"/>
      <point x="31" y="438"/>
      <point x="1" y="485"/>
      <point x="1" y="532" type="curve" smooth="yes"/>
      <point x="1" y="578"/>
      <point x="31" y="625"/>
      <point x="90" y="625" type="curve" smooth="yes"/>
      <point x="933" y="625" type="line" smooth="yes"/>
      <point x="992" y="625"/>
      <point x="1021" y="578"/>
      <point x="1021" y="531" type="curve" smooth="yes"/>
      <point x="1021" y="484"/>
      <point x="992" y="438"/>
      <point x="933" y="438" type="curve" smooth="yes"/>
    </contour>
  </outline>
</glyph>
<glyph name="dagger" format="1">
  <advance width="1230"/>
  <unicode hex="2020"/>
  <outline>
    <contour>
      <point x="721" y="951" type="line"/>
      <point x="721" y="105" type="line" smooth="yes"/>
      <point x="721" y="36"/>
      <point x="668" y="1"/>
      <point x="615" y="1" type="curve" smooth="yes"/>
      <point x="562" y="1"/>
      <point x="509" y="36"/>
      <point x="509" y="105" type="curve" smooth="yes"/>
      <point x="509" y="951" type="line"/>
      <point x="248" y="951" type="line" smooth="yes"/>
      <point x="192" y="951"/>
      <point x="163" y="995"/>
      <point x="163" y="1040" type="curve" smooth="yes"/>
      <point x="163" y="1085"/>
      <point x="192" y="1131"/>
      <point x="248" y="1131" type="curve" smooth="yes"/>
      <point x="509" y="1131" type="line"/>
      <point x="509" y="1372" type="line" smooth="yes"/>
      <point x="509" y="1442"/>
      <point x="562" y="1477"/>
      <point x="615" y="1477" type="curve" smooth="yes"/>
      <point x="668" y="1477"/>
      <point x="721" y="1441"/>
      <point x="721" y="1372" type="curve" smooth="yes"/>
      <point x="721" y="1131" type="line"/>
      <point x="978" y="1131" type="line" smooth="yes"/>
      <point x="1036" y="1131"/>
      <point x="1065" y="1086"/>
      <point x="1065" y="1042" type="curve" smooth="yes"/>
      <point x="1065" y="996"/>
      <point x="1036" y="951"/>
      <point x="978" y="951" type="curve" smooth="yes"/>
    </contour>
  </outline>
</glyph>
<glyph name="daggerdbl" format="1">
  <advance width="1230"/>
  <unicode hex="2021"/>
  <outline>
    <contour>
      <point x="718" y="325" type="line"/>
      <point x="718" y="104" type="line" smooth="yes"/>
      <point x="718" y="35"/>
      <point x="666" y="0"/>
      <point x="615" y="0" type="curve" smooth="yes"/>
      <point x="563" y="0"/>
      <point x="512" y="35"/>
      <point x="512" y="104" type="curve" smooth="yes"/>
      <point x="512" y="325" type="line"/>
      <point x="250" y="325" type="line" smooth="yes"/>
      <point x="192" y="325"/>
      <point x="163" y="368"/>
      <point x="163" y="411" type="curve" smooth="yes"/>
      <point x="163" y="454"/>
      <point x="193" y="498"/>
      <point x="250" y="498" type="curve" smooth="yes"/>
      <point x="512" y="498" type="line"/>
      <point x="512" y="976" type="line"/>
      <point x="250" y="976" type="line" smooth="yes"/>
      <point x="192" y="976"/>
      <point x="163" y="1019"/>
      <point x="163" y="1062" type="curve" smooth="yes"/>
      <point x="163" y="1105"/>
      <point x="193" y="1149"/>
      <point x="250" y="1149" type="curve" smooth="yes"/>
      <point x="512" y="1149" type="line"/>
      <point x="512" y="1372" type="line" smooth="yes"/>
      <point x="512" y="1442"/>
      <point x="563" y="1477"/>
      <point x="615" y="1477" type="curve" smooth="yes"/>
      <point x="666" y="1477"/>
      <point x="718" y="1442"/>
      <point x="718" y="1372" type="curve" smooth="yes"/>
      <point x="718" y="1149" type="line"/>
      <point x="976" y="1149" type="line" smooth="yes"/>
      <point x="1035" y="1149"/>
      <point x="1065" y="1106"/>
      <point x="1065" y="1063" type="curve" smooth="yes"/>
      <point x="1065" y="1020"/>
      <point x="1035" y="976"/>
      <point x="976" y="976" type="curve" smooth="yes"/>
      <point x="718" y="976" type="line"/>
      <point x="718" y="498" type="line"/>
      <point x="976" y="498" type="line" smooth="yes"/>
      <point x="1035" y="498"/>
      <point x="1065" y="455"/>
      <point x="1065" y="412" type="curve" smooth="yes"/>
      <point x="1065" y="369"/>
      <point x="1035" y="325"/>
      <point x="976" y="325" type="curve" smooth="yes"/>
    </contour>
  </outline>
</glyph>
<glyph name="partialdiff" format="1">
  <advance width="1223"/>
  <unicode hex="2202"/>
  <outline>
    <contour>
      <point x="220" y="1373" type="curve" smooth="yes"/>
      <point x="210" y="1369"/>
      <point x="200" y="1367"/>
      <point x="190" y="1367" type="curve" smooth="yes"/>
      <point x="143" y="1367"/>
      <point x="106" y="1414"/>
      <point x="106" y="1459" type="curve" smooth="yes"/>
      <point x="106" y="1488"/>
      <point x="120" y="1517"/>
      <point x="159" y="1535" type="curve" smooth="yes"/>
      <point x="256" y="1578"/>
      <point x="380" y="1622"/>
      <point x="532" y="1622" type="curve" smooth="yes"/>
      <point x="871" y="1622"/>
      <point x="1121" y="1361"/>
      <point x="1121" y="827" type="curve" smooth="yes"/>
      <point x="1121" y="331"/>
      <point x="907" y="-25"/>
      <point x="542" y="-25" type="curve" smooth="yes"/>
      <point x="227" y="-25"/>
      <point x="81" y="235"/>
      <point x="81" y="462" type="curve" smooth="yes"/>
      <point x="81" y="789"/>
      <point x="289" y="997"/>
      <point x="550" y="997" type="curve" smooth="yes"/>
      <point x="745" y="997"/>
      <point x="886" y="821"/>
      <point x="899" y="804" type="curve"/>
      <point x="901" y="814"/>
      <point x="901" y="832"/>
      <point x="901" y="849" type="curve" smooth="yes"/>
      <point x="901" y="1248"/>
      <point x="760" y="1441"/>
      <point x="519" y="1441" type="curve" smooth="yes"/>
      <point x="407" y="1441"/>
      <point x="305" y="1408"/>
    </contour>
    <contour>
      <point x="564" y="152" type="line" smooth="yes"/>
      <point x="736" y="152"/>
      <point x="851" y="379"/>
      <point x="875" y="615" type="curve"/>
      <point x="851" y="698"/>
      <point x="747" y="824"/>
      <point x="596" y="824" type="curve" smooth="yes"/>
      <point x="433" y="824"/>
      <point x="305" y="661"/>
      <point x="305" y="461" type="curve" smooth="yes"/>
      <point x="305" y="282"/>
      <point x="410" y="152"/>
      <point x="562" y="152" type="curve" smooth="yes"/>
    </contour>
  </outline>
</glyph>
<glyph name="minus" format="1">
  <advance width="763"/>
  <unicode hex="2212"/>
  <outline>
    <contour>
      <point x="133" y="438" type="line" smooth="yes"/>
      <point x="72" y="438"/>
      <point x="39" y="485"/>
      <point x="39" y="532" type="curve" smooth="yes"/>
      <point x="39" y="579"/>
      <point x="70" y="625"/>
      <point x="133" y="625" type="curve" smooth="yes"/>
      <point x="625" y="625" type="line" smooth="yes"/>
      <point x="686" y="625"/>
      <point x="718" y="578"/>
      <point x="718" y="531" type="curve" smooth="yes"/>
      <point x="718" y="484"/>
      <point x="686" y="438"/>
      <point x="625" y="438" type="curve" smooth="yes"/>
    </contour>
  </outline>
</glyph>
<glyph name="infinity" format="1">
  <advance width="1640"/>
  <unicode hex="221E"/>
  <outline>
    <contour>
      <point x="1537" y="600" type="line" smooth="yes"/>
      <point x="1537" y="381"/>
      <point x="1375" y="250"/>
      <point x="1205" y="250" type="curve" smooth="yes"/>
      <point x="1080" y="250"/>
      <point x="965" y="318"/>
      <point x="822" y="493" type="curve"/>
      <point x="710" y="365"/>
      <point x="599" y="250"/>
      <point x="428" y="250" type="curve" smooth="yes"/>
      <point x="255" y="250"/>
      <point x="102" y="393"/>
      <point x="102" y="590" type="curve" smooth="yes"/>
      <point x="102" y="792"/>
      <point x="249" y="937"/>
      <point x="445" y="937" type="curve" smooth="yes"/>
      <point x="603" y="937"/>
      <point x="719" y="829"/>
      <point x="831" y="696" type="curve"/>
      <point x="927" y="803"/>
      <point x="1032" y="937"/>
      <point x="1214" y="937" type="curve" smooth="yes"/>
      <point x="1399" y="937"/>
      <point x="1537" y="804"/>
      <point x="1537" y="603" type="curve" smooth="yes"/>
    </contour>
    <contour>
      <point x="447" y="374" type="line" smooth="yes"/>
      <point x="573" y="374"/>
      <point x="672" y="495"/>
      <point x="752" y="586" type="curve"/>
      <point x="664" y="700"/>
      <point x="577" y="816"/>
      <point x="434" y="816" type="curve" smooth="yes"/>
      <point x="310" y="816"/>
      <point x="234" y="716"/>
      <point x="234" y="591" type="curve" smooth="yes"/>
      <point x="234" y="474"/>
      <point x="317" y="374"/>
      <point x="444" y="374" type="curve" smooth="yes"/>
    </contour>
    <contour>
      <point x="1203" y="816" type="line" smooth="yes"/>
      <point x="1069" y="816"/>
      <point x="967" y="674"/>
      <point x="895" y="597" type="curve"/>
      <point x="1028" y="441"/>
      <point x="1105" y="374"/>
      <point x="1211" y="374" type="curve" smooth="yes"/>
      <point x="1336" y="374"/>
      <point x="1406" y="488"/>
      <point x="1406" y="591" type="curve" smooth="yes"/>
      <point x="1406" y="728"/>
      <point x="1321" y="816"/>
      <point x="1206" y="816" type="curve" smooth="yes"/>
    </contour>
  </outline>
</glyph>
<glyph name="lozenge" format="1">
  <advance width="1269"/>
  <unicode hex="25CA"/>
  <outline>
    <contour>
      <point x="720" y="-38" type="line" smooth="yes"/>
      <point x="696" y="-80"/>
      <point x="662" y="-97"/>
      <point x="629" y="-97" type="curve" smooth="yes"/>
      <point x="596" y="-97"/>
      <point x="566" y="-76"/>
      <point x="544" y="-38" type="curve"/>
      <point x="123" y="721" type="line"/>
      <point x="547" y="1488" type="line" smooth="yes"/>
      <point x="570" y="1529"/>
      <point x="603" y="1549"/>
      <point x="636" y="1549" type="curve" smooth="yes"/>
      <point x="669" y="1549"/>
      <point x="702" y="1529"/>
      <point x="725" y="1488" type="curve" smooth="yes"/>
      <point x="1148" y="721" type="line"/>
    </contour>
    <contour>
      <point x="636" y="1315" type="line"/>
      <point x="629" y="1315" type="line"/>
      <point x="307" y="727" type="line"/>
      <point x="632" y="131" type="line"/>
      <point x="639" y="131" type="line"/>
      <point x="960" y="717" type="line"/>
    </contour>
  </outline>
</glyph>
